<?xml version="1.0" standalone="no"?>
<!DOCTYPE svg PUBLIC "-//W3C//DTD SVG 20010904//EN"
 "http://www.w3.org/TR/2001/REC-SVG-20010904/DTD/svg10.dtd">
<svg version="1.0" xmlns="http://www.w3.org/2000/svg"
 width="66.000000pt" height="66.000000pt" viewBox="0 0 66.000000 66.000000"
 preserveAspectRatio="xMidYMid meet">
<metadata>
Created by potrace 1.13, written by Peter Selinger 2001-2015
</metadata>
<g transform="translate(0.000000,66.000000) scale(0.100000,-0.100000)"
fill="#000000" stroke="none">
<path d="M9 658 c0 -2 -1 -150 -2 -331 l-2 -327 328 0 327 0 -2 328 -3 327
-322 3 c-178 1 -323 1 -324 0z m596 -45 c-25 -137 -120 -223 -257 -231 -151
-9 -266 80 -293 231 l-7 37 282 0 282 0 -7 -37z m-493 -188 c65 -60 130 -85
218 -85 58 0 87 6 126 24 70 32 128 87 158 149 l26 51 0 -234 0 -234 -26 51
c-30 62 -88 117 -158 149 -72 33 -180 33 -252 0 -70 -32 -128 -87 -158 -149
l-26 -51 0 234 0 234 26 -51 c14 -29 43 -68 66 -88z m342 -170 c79 -38 140
-123 149 -208 l4 -37 -277 0 -277 0 4 37 c10 90 84 187 166 217 57 21 179 16
231 -9z"/>
</g>
</svg>
